<svg id="Calque_1" data-name="Calque 1" xmlns="http://www.w3.org/2000/svg" viewBox="0 0 373.25 403.43"><defs><style>.cls-1{fill:none;stroke:#1dabac;stroke-miterlimit:10;stroke-width:5px;opacity:0.5;isolation:isolate;}</style></defs><title>banquise_zone1</title><path class="cls-1" d="M943.25,299.17s64.38,46.42,114.71-3.92l8.69,1.71s3.85,13.88,15.19,13.88c0,0-62.84,29.49-41.17,77.16s41.67,46.34,55.67,46.34c0,0,9.59,8,27.59,8,0,0,25.25,22,50.25,22V474s-43.83,40-43.83,58.67c0,0-28.67,12.67-28.67,69a86.8,86.8,0,0,1-12.33,15.67c-7.67,7.67-18.33,21-18.33,21l-1.67,38.33s-25.5-4.83-45,14.67c0,0-24.67-74.67-71.67-74.67,0,0-1-32.67-58-89.67C877,509.33,880.33,459,867,445.67c-4.33-4.33,1.5-12.5-28.67-42.67,0,0-17-31.33-32-31.33l-0.33-9s24.5-3.5,32.67-11.67,59.17-6.17,67-14S943.25,299.17,943.25,299.17Z" transform="translate(-803.42 -292.54)"/></svg>